<?xml version="1.0" encoding="UTF-8" standalone="no"?>
<!-- Created with Inkscape (http://www.inkscape.org/) -->

<svg
   xmlns:dc="http://purl.org/dc/elements/1.1/"
   xmlns:rdf="http://www.w3.org/1999/02/22-rdf-syntax-ns#"
   xmlns:svg="http://www.w3.org/2000/svg"
   xmlns="http://www.w3.org/2000/svg"
   xmlns:sodipodi="http://sodipodi.sourceforge.net/DTD/sodipodi-0.dtd"
   xmlns:inkscape="http://www.inkscape.org/namespaces/inkscape"
   id="leaf"
   version="1.1"
   inkscape:version="0.48.4 r9939"
   sodipodi:docname="svg-leave3.svg"
   width="59.909729"
   height="86.72287">
  <g

     id="leaf">
    <path
       d="m 58.315219,41.626317 c 0.269,-1.726 -1.195,-8.477 -1.587,-9.858 -0.395,-1.382 -3.262,-6.458 -3.262,-6.458 l 0.021,-0.155 c -1.185,-5.218 -3.813,-6.979 -3.813,-6.979 -2.16,-5.414 -7.072,-13.8189999 -7.39,-15.7869999 -0.319,-1.96699996 -1.39,-1.95999996 -1.39,-1.95999996 C 38.183219,13.777317 23.663218,22.969317 23.663218,22.969317 c -5.32,3.67 -10.233,8.603 -10.233,8.603 -1.466,2.523 -5.2390004,5.249 -6.4870004,6.088 -1.25,0.838 -1.787,1.696 -2.774,2.711 -0.986,1.015 -2.002,2.811 -2.522,4.099 -0.523,1.289 -2.09500003,3.695 -2.09500003,3.695 -0.184,0.323 -0.321,0.647 -0.423,0.989 -0.37499997,1.255 -0.29999997,2.748 -0.47499997,5.268 -0.221,3.206 0.60299997,5.689 0.60299997,5.689 2.72400003,18.802 16.68900043,13.744 16.68900043,13.744 2.579,-1.569 6.368,-0.704 6.368,-0.704 0.373,3.759 -8.083,13.326 -8.083,13.326 0.884,1.255 1.952,0.375 1.952,0.375 3.093,-4.098 7.993,-12.813 8.906,-13.267 0.915,-0.453 2.247,0.288 2.247,0.288 4.120001,6.806 7.621001,6.756 9.726001,7.025 2.106,0.271 3.89,-0.286 5.127,-0.483 1.238,-0.196 4.201,-1.601 5.599,-2.491 1.398,-0.89 1.999,-2.24 2.854,-3.343 0.855,-1.104 1.651,-3.053 1.651,-3.053 4.377,-5.573 4.415,-9.944 4.415,-9.944 -0.432,-2.195 0.301,-5.668 0.301,-5.668 2.567,-9.658 1.038,-12.565 1.306,-14.29 z"
       inkscape:connector-curvature="0"
       style="fill:#008320;fill-opacity:1"/>
       <set attributeName="display" to="none" begin="leaf.click" />
       <set attributeName="fill" to="orange" begin="leaf.mouseout" />

  </g>
</svg>
